<svg width="24" height="24" viewBox="0 0 24 24" fill="none" xmlns="http://www.w3.org/2000/svg">
<path d="M7.5 13.5C8.05229 13.5 8.5 13.0523 8.5 12.5C8.5 11.9477 8.05229 11.5 7.5 11.5C6.94771 11.5 6.5 11.9477 6.5 12.5C6.5 13.0523 6.94771 13.5 7.5 13.5Z" fill="#1F0004" fill-opacity="0.55"/>
<path fill-rule="evenodd" clip-rule="evenodd" d="M4 3C2.34314 3 1 4.34315 1 6V18C1 19.6569 2.34314 21 4 21H20C21.6569 21 23 19.6569 23 18V6C23 4.34315 21.6569 3 20 3H4ZM2.5 14.5V10.5H7.5C8.60457 10.5 9.5 11.3954 9.5 12.5C9.5 13.6046 8.60457 14.5 7.5 14.5H2.5ZM7.5 16H2.5V18C2.5 18.8284 3.17157 19.5 4 19.5H20C20.8284 19.5 21.5 18.8284 21.5 18V6C21.5 5.17157 20.8284 4.5 20 4.5H4C3.17157 4.5 2.5 5.17157 2.5 6V9H7.5C9.433 9 11 10.567 11 12.5C11 14.433 9.433 16 7.5 16Z" fill="#1F0004" fill-opacity="0.55"/>
</svg>
