<svg width="24" height="24" viewBox="0 0 24 24" fill="none" xmlns="http://www.w3.org/2000/svg">
<path fill-rule="evenodd" clip-rule="evenodd" d="M12 23C18.0751 23 23 18.0751 23 12C23 5.92487 18.0751 1 12 1C5.92487 1 1 5.92487 1 12C1 18.0751 5.92487 23 12 23ZM16.053 7.18911C15.8677 7.14773 15.6745 7.15992 15.496 7.22425L10.4102 9.05524C10.0986 9.1674 9.81554 9.34699 9.58131 9.58118C9.34709 9.81536 9.16745 10.0984 9.05523 10.41L7.22423 15.496C7.1599 15.6746 7.14772 15.8677 7.1891 16.053C7.23048 16.2382 7.32372 16.4078 7.45793 16.542C7.59214 16.6763 7.76177 16.7695 7.947 16.8109C8.13223 16.8523 8.32542 16.8401 8.50398 16.7757L13.5897 14.9447C13.9014 14.8326 14.1844 14.653 14.4186 14.4188C14.6529 14.1846 14.8325 13.9016 14.9447 13.59L16.7757 8.504C16.8401 8.32543 16.8522 8.13225 16.8109 7.94701C16.7695 7.76179 16.6762 7.59216 16.542 7.45795C16.4078 7.32374 16.2382 7.2305 16.053 7.18911Z" fill="#1F0004" fill-opacity="0.95"/>
</svg>
