<svg width="24" height="24" viewBox="0 0 24 24" fill="none" xmlns="http://www.w3.org/2000/svg">
<path fill-rule="evenodd" clip-rule="evenodd" d="M6.5 6.5C6.5 3.46243 8.96243 1 12 1H15.5C16.6046 1 17.5 1.89543 17.5 3V6.5C17.5 9.53757 15.0376 12 12 12C8.96243 12 6.5 9.53757 6.5 6.5ZM8 6.5C8 4.29086 9.79086 2.5 12 2.5H15.5C15.7761 2.5 16 2.72386 16 3V6.5C16 8.70914 14.2091 10.5 12 10.5C9.79086 10.5 8 8.70914 8 6.5Z" fill="#1F0004" fill-opacity="0.55"/>
<path fill-rule="evenodd" clip-rule="evenodd" d="M1 18C1 15.2386 3.23858 13 6 13H18C20.7614 13 23 15.2386 23 18C23 20.7614 20.7614 23 18 23H6C3.23858 23 1 20.7614 1 18ZM2.5 18C2.5 16.067 4.067 14.5 6 14.5H18C19.933 14.5 21.5 16.067 21.5 18C21.5 19.933 19.933 21.5 18 21.5H6C4.067 21.5 2.5 19.933 2.5 18Z" fill="#1F0004" fill-opacity="0.55"/>
</svg>
