<svg width="24" height="24" viewBox="0 0 24 24" fill="none" xmlns="http://www.w3.org/2000/svg">
<path fill-rule="evenodd" clip-rule="evenodd" d="M5.75 5.5C5.75 3.56701 7.317 2 9.25 2C10.3655 2 11.3591 2.52184 12 3.33471C12.6409 2.52184 13.6345 2 14.75 2C16.683 2 18.25 3.56701 18.25 5.5C18.25 6.24363 18.0181 6.93308 17.6227 7.5H20C21.1046 7.5 22 8.39543 22 9.5V11.5C22 12.6046 21.1046 13.5 20 13.5V19C20 20.6569 18.6569 22 17 22H7C5.34315 22 4 20.6569 4 19V13.5C2.89543 13.5 2 12.6046 2 11.5V9.5C2 8.39543 2.89543 7.5 4 7.5H6.37734C5.9819 6.93308 5.75 6.24362 5.75 5.5ZM12.75 20.5H17C17.8284 20.5 18.5 19.8284 18.5 19V13.5H12.75V20.5ZM11.25 13.5V20.5H7C6.17157 20.5 5.5 19.8284 5.5 19V13.5H11.25ZM12.75 12H20C20.2761 12 20.5 11.7761 20.5 11.5V9.5C20.5 9.22386 20.2761 9 20 9H12.75V12ZM11.25 9H4C3.72385 9 3.5 9.22386 3.5 9.5V11.5C3.5 11.7761 3.72386 12 4 12H11.25V9ZM16.75 5.5C16.75 6.60457 15.8546 7.5 14.75 7.5H12.75V5.5C12.75 4.39543 13.6454 3.5 14.75 3.5C15.8546 3.5 16.75 4.39543 16.75 5.5ZM11.25 5.5V7.5H9.25C8.14543 7.5 7.25 6.60457 7.25 5.5C7.25 4.39543 8.14543 3.5 9.25 3.5C10.3546 3.5 11.25 4.39543 11.25 5.5Z" fill="#1F0004" fill-opacity="0.55"/>
</svg>
