<svg width="24" height="24" viewBox="0 0 24 24" fill="none" xmlns="http://www.w3.org/2000/svg">
<path d="M13.7411 5.78903L13.7088 5.81926L8.71692 10.764C8.04205 11.4325 8.02799 12.5077 8.67474 13.1931L8.71692 13.2363L13.7088 18.181C13.8387 18.3097 14.0042 18.3818 14.174 18.3973L14.2204 18.4001H14.2668C14.4526 18.3945 14.6367 18.3214 14.7785 18.181C15.0633 17.8989 15.0735 17.4477 14.809 17.1535L14.7785 17.1214L10.1432 12.5299C9.85833 12.2478 9.84816 11.7966 10.1126 11.5024L10.1432 11.4703L14.7785 6.87884C15.0738 6.58625 15.0738 6.11186 14.7785 5.81926C14.636 5.67819 14.451 5.60514 14.2644 5.6001L14.2177 5.60026C14.0467 5.60603 13.8772 5.66895 13.7411 5.78903Z" fill="#1F0004" fill-opacity="0.55"/>
</svg>
