<svg width="36" height="36" viewBox="0 0 36 36" fill="none" xmlns="http://www.w3.org/2000/svg">
<path d="M30.78 21.6181L31.5 24.0841C31.806 25.1101 31.194 26.1181 30.24 26.4241L15.606 30.6181C14.58 30.9241 13.572 30.3121 13.266 29.3581L12.6 27.0721C13.5 26.7121 14.04 25.6861 13.734 24.7861C13.5 23.8321 12.528 23.2921 11.574 23.4721L10.8 20.7721C10.494 19.7461 11.106 18.7381 12.06 18.4321L26.694 14.2381C27.72 13.9321 28.728 14.5441 29.034 15.4981L29.808 18.1981C28.908 18.5581 28.368 19.5121 28.674 20.4121C28.98 21.3121 29.826 21.7981 30.78 21.6181Z" fill="#DAE9FF"/>
<path d="M29.826 21.312L30.42 23.472C30.726 24.498 30.114 25.506 29.16 25.758L15.12 29.772C14.094 30.078 13.086 29.466 12.78 28.512L12.186 26.352C13.086 25.992 13.572 25.038 13.266 24.138C13.032 23.238 12.06 22.644 11.16 22.824L10.386 20.25C10.08 19.224 10.692 18.216 11.646 17.964L25.686 13.95C26.712 13.644 27.72 14.256 28.026 15.21L28.746 17.784C27.846 18.144 27.36 19.098 27.666 19.998C27.954 20.898 28.854 21.438 29.826 21.312Z" fill="#3889FF"/>
<path d="M16.56 27.6121C16.38 27.6121 16.2 27.4861 16.146 27.3061L16.02 26.8921C15.966 26.6581 16.074 26.4061 16.326 26.3521C16.56 26.2981 16.812 26.4061 16.866 26.6581L16.992 27.0721C17.046 27.3061 16.938 27.5581 16.686 27.6121H16.56ZM15.966 25.6321C15.786 25.6321 15.606 25.5061 15.552 25.3261L15.426 24.9121C15.372 24.6781 15.48 24.4261 15.732 24.3721C15.966 24.3181 16.218 24.4261 16.272 24.6781L16.398 25.0921C16.452 25.3261 16.344 25.5781 16.092 25.6321H15.966ZM15.426 23.5981C15.246 23.5981 15.066 23.4721 15.012 23.2921L14.886 22.8781C14.832 22.6441 14.94 22.3921 15.192 22.3381C15.426 22.2841 15.678 22.3921 15.732 22.6441L15.858 23.0581C15.912 23.2921 15.804 23.5441 15.552 23.5981H15.426ZM14.814 21.5641C14.634 21.5641 14.454 21.4381 14.4 21.2581L14.274 20.8441C14.22 20.6101 14.328 20.3581 14.58 20.3041C14.814 20.2501 15.066 20.3581 15.12 20.6101L15.246 21.0241C15.3 21.2581 15.192 21.5101 14.94 21.5641H14.814ZM14.274 19.5841C14.094 19.5841 13.914 19.4581 13.86 19.2781L13.734 18.8641C13.68 18.6301 13.788 18.3781 14.04 18.3241C14.274 18.2701 14.526 18.3781 14.58 18.6301L14.706 19.0441C14.76 19.2781 14.652 19.5301 14.4 19.5841C14.346 19.5121 14.346 19.5841 14.274 19.5841Z" fill="#DAE9FF"/>
<path d="M16.326 27.6838C16.146 27.6838 15.966 27.5578 15.912 27.3778L15.786 26.9638C15.732 26.7298 15.84 26.4778 16.092 26.4238C16.326 26.3698 16.578 26.4778 16.632 26.7298L16.758 27.1438C16.812 27.3778 16.704 27.6298 16.452 27.6838H16.326ZM15.786 25.7038C15.606 25.7038 15.426 25.5778 15.372 25.3978L15.246 24.9838C15.192 24.7498 15.3 24.4978 15.552 24.4438C15.786 24.3898 16.038 24.4978 16.092 24.7498L16.218 25.1638C16.272 25.3978 16.164 25.6498 15.912 25.7038C15.84 25.6318 15.786 25.7038 15.786 25.7038ZM15.174 23.6518C14.994 23.6518 14.814 23.5258 14.76 23.3458L14.634 22.9318C14.58 22.6978 14.688 22.4458 14.94 22.3918C15.174 22.3378 15.426 22.4458 15.48 22.6978L15.606 23.1118C15.66 23.3458 15.552 23.5978 15.3 23.6518H15.174ZM14.58 21.6178C14.4 21.6178 14.22 21.4918 14.166 21.3118L14.112 20.8978C14.058 20.6638 14.166 20.4118 14.418 20.3578C14.652 20.3038 14.904 20.4118 14.958 20.6638L15.084 21.0778C15.138 21.3118 15.03 21.5638 14.778 21.6178H14.58ZM14.04 19.6378C13.86 19.6378 13.68 19.5118 13.626 19.3318L13.5 18.9178C13.446 18.6838 13.554 18.4318 13.806 18.3778C14.04 18.3238 14.292 18.4318 14.346 18.6838L14.472 19.0978C14.526 19.3318 14.418 19.5838 14.166 19.6378H14.04Z" fill="white"/>
<path d="M16.92 20.304C17.1 19.818 17.64 19.278 18.18 19.17C18.18 19.17 20.286 18.504 21.6 18.144L22.014 18.018C22.554 17.964 23.094 18.324 23.274 18.864L23.22 18.738C23.346 19.278 23.04 19.872 22.5 19.998L18.414 21.204C17.874 21.384 17.208 21.078 17.028 20.538L16.92 20.304ZM17.946 23.364C18.126 22.878 18.666 22.338 19.152 22.23L25.686 20.376C26.172 20.25 26.766 20.502 26.946 20.97L27 21.096C27.234 21.636 27 22.176 26.46 22.302L19.62 24.282L19.494 24.336C18.954 24.516 18.288 24.21 18 23.742L17.874 23.562L17.946 23.364Z" fill="#DAE9FF"/>
<path d="M17.514 19.2779L21.528 18.1439C21.942 18.0179 22.428 18.2699 22.554 18.6839C22.68 19.0979 22.428 19.5839 22.014 19.7099L18 20.8439C17.586 20.9699 17.1 20.7179 16.974 20.3039C16.794 19.8179 17.046 19.4039 17.514 19.2779ZM18.414 22.4639L25.614 20.4299C26.028 20.3039 26.514 20.5559 26.64 20.9699C26.766 21.3839 26.514 21.8699 26.1 21.9959L18.9 24.0299C18.486 24.1559 18 23.9039 17.874 23.4899C17.694 23.0039 18 22.5719 18.414 22.4639Z" fill="white"/>
<path d="M31.806 13.8242L33.426 17.1902C34.092 18.5042 33.552 20.1242 32.22 20.7902L12.42 30.3842C11.106 31.0502 9.48599 30.5102 8.81999 29.1242L7.32599 26.0102C8.53199 25.2902 8.99998 23.7242 8.35198 22.4642C7.75799 21.2042 6.24599 20.6102 4.93199 21.0782L3.13199 17.4242C2.46599 16.1102 3.00599 14.4902 4.33799 13.8242L24.138 4.23022C25.452 3.56422 27.072 4.10422 27.738 5.49022L29.538 9.14422C28.332 9.86422 27.864 11.3582 28.458 12.5642C28.98 13.7522 30.474 14.2922 31.806 13.8242Z" fill="#FFD3D7"/>
<path d="M30.366 13.5718L31.806 16.5778C32.472 17.8918 31.932 19.5118 30.546 20.1778L11.7 29.4118C10.386 30.0778 8.766 29.5378 8.1 28.1518L6.66 25.1458C7.794 24.4258 8.226 22.9318 7.614 21.6718C7.02 20.4118 5.58 19.8718 4.248 20.2858L2.574 16.8118C1.908 15.4978 2.448 13.8778 3.834 13.2118L22.68 3.97778C23.994 3.31178 25.614 3.85178 26.28 5.23778L28.026 8.78378C26.892 9.50378 26.46 10.9978 27.072 12.2578C27.666 13.4638 29.106 14.0578 30.366 13.5718Z" fill="#FB560A"/>
<path d="M12.96 25.7041C12.726 25.7041 12.546 25.5781 12.42 25.3441L12.186 24.8581C12.06 24.5521 12.186 24.1921 12.492 24.0841C12.798 23.9581 13.158 24.0841 13.266 24.3901L13.5 24.9301C13.626 25.2361 13.5 25.5961 13.194 25.7041H12.96ZM11.646 23.0041C11.412 23.0041 11.232 22.8781 11.106 22.6441L10.872 22.1041C10.746 21.7981 10.872 21.4381 11.178 21.3301C11.484 21.2041 11.844 21.3301 11.952 21.6361L12.186 22.1761C12.312 22.4821 12.186 22.8421 11.88 22.9501C11.826 23.0041 11.754 23.0041 11.646 23.0041ZM10.386 20.3041C10.152 20.3041 9.97201 20.1781 9.84601 19.9441L9.61201 19.4041C9.48601 19.0981 9.61201 18.7381 9.91801 18.6301C10.224 18.5221 10.584 18.6301 10.692 18.9361L10.926 19.4761C11.052 19.7821 10.926 20.1421 10.62 20.2501C10.566 20.3041 10.44 20.3041 10.386 20.3041ZM9.05401 17.6041C8.82001 17.6041 8.64001 17.4781 8.51401 17.2441L8.28001 16.7041C8.15401 16.3981 8.28001 16.0381 8.58601 15.9301C8.89201 15.8041 9.25201 15.9301 9.36001 16.2361L9.59401 16.7761C9.72001 17.0821 9.59401 17.4421 9.28801 17.5501C9.23401 17.6041 9.18001 17.6041 9.05401 17.6041ZM7.74001 14.9041C7.50601 14.9041 7.32601 14.7781 7.20001 14.5441L6.96601 14.0041C6.84001 13.6981 6.96601 13.3381 7.27201 13.2301C7.57801 13.1041 7.93801 13.2301 8.04601 13.5361L8.28001 14.0761C8.40601 14.3821 8.28001 14.7421 7.97401 14.8501C7.92001 14.9041 7.86601 14.9041 7.74001 14.9041Z" fill="#DAE9FF"/>
<path d="M12.654 25.8118C12.42 25.8118 12.24 25.6858 12.114 25.4518L11.88 24.9118C11.754 24.6058 11.88 24.2458 12.186 24.1378C12.492 24.0118 12.852 24.1378 12.96 24.4438L13.194 24.9838C13.32 25.2898 13.194 25.6498 12.888 25.7578C12.834 25.8118 12.78 25.8118 12.654 25.8118ZM11.34 23.1118C11.106 23.1118 10.926 22.9858 10.8 22.7518L10.566 22.2118C10.44 21.9058 10.566 21.5458 10.872 21.4378C11.178 21.3118 11.538 21.4378 11.646 21.7438L11.88 22.2838C12.006 22.5898 11.88 22.9498 11.574 23.0578C11.52 23.1118 11.466 23.1118 11.34 23.1118ZM10.026 20.4838C9.79201 20.4838 9.61201 20.3578 9.48601 20.1238L9.25201 19.5838C9.12601 19.2778 9.25201 18.9178 9.55801 18.8098C9.86401 18.6838 10.224 18.8098 10.332 19.1158L10.566 19.6558C10.692 19.9618 10.566 20.3218 10.26 20.4298C10.206 20.4118 10.134 20.4838 10.026 20.4838ZM8.76601 17.7838C8.53201 17.7838 8.35201 17.6578 8.22601 17.4238L7.99201 16.8838C7.86601 16.5778 7.99201 16.2178 8.29801 16.1098C8.60401 15.9838 8.96401 16.1098 9.07201 16.4158L9.30601 16.9558C9.43201 17.2618 9.30601 17.6218 9.00001 17.7298C8.94601 17.7118 8.82001 17.7838 8.76601 17.7838ZM7.43401 15.0838C7.20001 15.0838 7.02001 14.9578 6.89401 14.7238L6.66001 14.1838C6.53401 13.8778 6.66001 13.5178 6.96601 13.4098C7.27201 13.2838 7.63201 13.4098 7.74001 13.7158L7.97401 14.2558C8.10001 14.5618 7.97401 14.9218 7.66801 15.0298C7.61401 15.0118 7.50601 15.0838 7.43401 15.0838Z" fill="white"/>
<path d="M11.826 15.3178C11.952 14.5978 12.6 13.6978 13.32 13.3378C13.32 13.3378 16.146 11.8438 17.874 10.9978C19.602 10.1518 18.414 10.7638 18.414 10.7638C19.188 10.5298 20.088 10.8898 20.448 11.6638L20.394 11.4838C20.754 12.2578 20.394 13.1578 19.674 13.5178L14.22 16.2178C13.5 16.5778 12.474 16.3438 12.06 15.6238L11.826 15.3178ZM14.04 19.4578C14.166 18.7378 14.814 17.8918 15.48 17.5318L24.3 13.2658C24.966 12.9598 25.866 13.1398 26.28 13.8058L26.406 13.9858C26.892 14.6518 26.64 15.4798 25.92 15.9118L16.614 20.2858L16.488 20.3398C15.768 20.6998 14.688 20.4658 14.148 19.8538L13.968 19.6738L14.04 19.4578Z" fill="#DAE9FF"/>
<path d="M12.366 13.6981L17.766 11.0521C18.36 10.7461 19.08 10.9981 19.386 11.5921C19.692 12.1861 19.44 12.9061 18.846 13.2121L13.446 15.8581C12.852 16.1641 12.132 15.9121 11.826 15.3181C11.52 14.7241 11.826 14.0041 12.366 13.6981ZM14.526 18.0181L24.192 13.2841C24.786 12.9781 25.506 13.2301 25.812 13.8241C26.118 14.4181 25.866 15.1381 25.272 15.4441L15.606 20.1781C15.012 20.4841 14.292 20.2321 13.986 19.6381C13.68 19.0441 13.914 18.3241 14.526 18.0181Z" fill="white"/>
<path d="M6.17401 31.1039C6.17401 31.7699 11.538 32.3099 18.18 32.3099C24.804 32.3099 30.186 31.7699 30.186 31.1039C30.186 30.4379 24.822 29.8979 18.18 29.8979C11.556 29.8979 6.17401 30.4379 6.17401 31.1039Z" fill="#FFD3D7"/>
</svg>
